# xmcd
#
# Track frame offsets:
#	150
#	20779
#	49976
#	68485
#	85423
#	105967
#	125745
#	139710
#	157427
#	173690
#	188851
#
# Disc length: 2746 seconds
# Revision: 2
# Processed by: cddbd v1.5.2PL0 Copyright (c) Steve Scherf et al.
# Submitted via: dBpowerAMP V12.0
#
DISCID=9a0ab80b
DTITLE=David Jacobs-Strain - Liar's Day
DYEAR=2008
DGENRE=Blues
TTITLE0=Liar's Day
TTITLE1=Write me a few short Lines
TTITLE2=Rainbow Junkies
TTITLE3=Say it to my face
TTITLE4=Don't have a choice
TTITLE5=Traveling Riverside Blues
TTITLE6=Christmas in July
TTITLE7=Black Cat at Midnight
TTITLE8=Sawgrass revival
TTITLE9=Black Glass Butterfly
TTITLE10=Old Tennis Shoes
EXTD=
EXTT0=
EXTT1=
EXTT2=
EXTT3=
EXTT4=
EXTT5=
EXTT6=
EXTT7=
EXTT8=
EXTT9=
EXTT10=
PLAYORDER=
